<svg width="64" height="64" viewBox="0 0 64 64" fill="none" xmlns="http://www.w3.org/2000/svg">
  <rect width="64" height="64" fill="#C5D1DB"/>
  <path d="M38.187 23.657L43.845 18.003L46 20.16L40.342 25.815L38.187 23.657Z" fill="#CCD6DD"/>
  <path d="M28 50C35.732 50 42 43.732 42 36C42 28.268 35.732 22 28 22C20.268 22 14 28.268 14 36C14 43.732 20.268 50 28 50Z" fill="#31373D"/>
  <path d="M33 25.342L38.658 19.685L44.315 25.343L38.657 31L33 25.342Z" fill="#31373D"/>
  <path d="M46 22C48.2091 22 50 20.2091 50 18C50 15.7909 48.2091 14 46 14C43.7909 14 42 15.7909 42 18C42 20.2091 43.7909 22 46 22Z" fill="#F18F26"/>
  <path d="M46 20C47.1046 20 48 19.1046 48 18C48 16.8954 47.1046 16 46 16C44.8954 16 44 16.8954 44 18C44 19.1046 44.8954 20 46 20Z" fill="#FDCB58"/>
</svg>
